<mxfile host="65bd71144e">
    <diagram id="Tq2OHRWzCgwAdD-CH-_O" name="Page-1">
        <mxGraphModel dx="823" dy="404" grid="1" gridSize="10" guides="1" tooltips="1" connect="1" arrows="1" fold="1" page="1" pageScale="1" pageWidth="850" pageHeight="1100" math="0" shadow="0">
            <root>
                <mxCell id="0"/>
                <mxCell id="1" parent="0"/>
                <mxCell id="42" value="" style="rounded=1;whiteSpace=wrap;html=1;" parent="1" vertex="1">
                    <mxGeometry y="143" width="810" height="507" as="geometry"/>
                </mxCell>
                <mxCell id="4" value="NGINX docker container (nginx)" style="swimlane;startSize=23;fillColor=#008a00;fontColor=#ffffff;strokeColor=#005700;strokeWidth=7;" parent="1" vertex="1">
                    <mxGeometry x="40" y="208" width="230" height="170" as="geometry">
                        <mxRectangle x="70" y="120" width="130" height="23" as="alternateBounds"/>
                    </mxGeometry>
                </mxCell>
                <mxCell id="24" value="/etc/nginx/&lt;br&gt;/nginx.conf" style="shape=cylinder3;whiteSpace=wrap;html=1;boundedLbl=1;backgroundOutline=1;size=15;fontSize=13;fillColor=#a0522d;fontColor=#ffffff;strokeColor=#6D1F00;" parent="4" vertex="1">
                    <mxGeometry x="20" y="70" width="100" height="80" as="geometry"/>
                </mxCell>
                <mxCell id="15" value="80" style="ellipse;whiteSpace=wrap;html=1;aspect=fixed;fillColor=#f8cecc;gradientColor=#ea6b66;strokeColor=#b85450;" parent="4" vertex="1">
                    <mxGeometry x="180" y="75" width="30" height="30" as="geometry"/>
                </mxCell>
                <mxCell id="5" value="Postgres Docker Container (db)" style="swimlane;fillColor=#008a00;fontColor=#ffffff;strokeColor=#005700;strokeWidth=7;" parent="1" vertex="1">
                    <mxGeometry x="210" y="400.5" width="215" height="160" as="geometry"/>
                </mxCell>
                <mxCell id="6" value="5432" style="ellipse;whiteSpace=wrap;html=1;aspect=fixed;fontSize=13;fillColor=#f8cecc;gradientColor=#ea6b66;strokeColor=#b85450;" parent="5" vertex="1">
                    <mxGeometry x="150" y="40" width="40" height="40" as="geometry"/>
                </mxCell>
                <mxCell id="7" value="/var/lib/postgresql&lt;br&gt;/data" style="shape=cylinder3;whiteSpace=wrap;html=1;boundedLbl=1;backgroundOutline=1;size=15;fontSize=13;fillColor=#a0522d;fontColor=#ffffff;strokeColor=#6D1F00;" parent="5" vertex="1">
                    <mxGeometry x="30" y="40" width="110" height="80" as="geometry"/>
                </mxCell>
                <mxCell id="52" style="edgeStyle=none;html=1;exitX=0.5;exitY=1;exitDx=0;exitDy=0;entryX=1;entryY=0;entryDx=0;entryDy=0;fontSize=16;" parent="1" source="8" target="6" edge="1">
                    <mxGeometry relative="1" as="geometry"/>
                </mxCell>
                <mxCell id="8" value="Metabase docker container (metabase)" style="swimlane;startSize=23;fillColor=#008a00;fontColor=#ffffff;strokeColor=#005700;strokeWidth=7;" parent="1" vertex="1">
                    <mxGeometry x="362.5" y="198" width="250" height="175" as="geometry"/>
                </mxCell>
                <mxCell id="9" value="3000" style="ellipse;whiteSpace=wrap;html=1;aspect=fixed;fontSize=13;fillColor=#f8cecc;gradientColor=#ea6b66;strokeColor=#b85450;" parent="8" vertex="1">
                    <mxGeometry x="22.5" y="67.5" width="40" height="40" as="geometry"/>
                </mxCell>
                <mxCell id="10" value="/metabase&lt;br&gt;&lt;br&gt;/metabase/&lt;br&gt;metabase.db" style="shape=cylinder3;whiteSpace=wrap;html=1;boundedLbl=1;backgroundOutline=1;size=15;fontSize=13;fillColor=#a0522d;fontColor=#ffffff;strokeColor=#6D1F00;" parent="8" vertex="1">
                    <mxGeometry x="130" y="47.5" width="100" height="100" as="geometry"/>
                </mxCell>
                <mxCell id="11" value="" style="edgeStyle=none;html=1;entryX=0;entryY=0;entryDx=0;entryDy=0;" parent="1" source="12" target="15" edge="1">
                    <mxGeometry relative="1" as="geometry">
                        <mxPoint x="120" y="248" as="targetPoint"/>
                    </mxGeometry>
                </mxCell>
                <mxCell id="12" value="11190" style="ellipse;whiteSpace=wrap;html=1;aspect=fixed;fillColor=#f8cecc;strokeColor=#b85450;gradientColor=#ea6b66;" parent="1" vertex="1">
                    <mxGeometry x="120" y="158" width="40" height="40" as="geometry"/>
                </mxCell>
                <mxCell id="13" value="load balancing/reverse proxy" style="text;html=1;resizable=0;autosize=1;align=center;verticalAlign=middle;points=[];fillColor=none;strokeColor=none;rounded=0;" parent="1" vertex="1">
                    <mxGeometry x="70" y="258" width="170" height="20" as="geometry"/>
                </mxCell>
                <mxCell id="17" value="Cat Data Docker Container (datawatcher)" style="swimlane;fontSize=13;html=1;fillColor=#008a00;fontColor=#ffffff;strokeColor=#005700;strokeWidth=7;" parent="1" vertex="1">
                    <mxGeometry x="490" y="401" width="290" height="149.5" as="geometry"/>
                </mxCell>
                <mxCell id="18" value="/usr/cat_data_output" style="shape=cylinder3;whiteSpace=wrap;html=1;boundedLbl=1;backgroundOutline=1;size=15;fontSize=13;fillColor=#a0522d;fontColor=#ffffff;strokeColor=#6D1F00;" parent="17" vertex="1">
                    <mxGeometry x="65" y="45" width="130" height="70" as="geometry"/>
                </mxCell>
                <mxCell id="22" value="" style="endArrow=classic;html=1;fontSize=13;entryX=1;entryY=1;entryDx=0;entryDy=0;" parent="1" target="6" edge="1">
                    <mxGeometry width="50" height="50" relative="1" as="geometry">
                        <mxPoint x="490" y="520" as="sourcePoint"/>
                        <mxPoint x="450" y="408" as="targetPoint"/>
                    </mxGeometry>
                </mxCell>
                <mxCell id="23" value="/opt/catwatcher/&lt;br&gt;metabase_docker" style="shape=cylinder3;whiteSpace=wrap;html=1;boundedLbl=1;backgroundOutline=1;size=15;fontSize=13;fillColor=#1ba1e2;fontColor=#ffffff;strokeColor=#006EAF;" parent="1" vertex="1">
                    <mxGeometry x="640" y="258" width="110" height="70" as="geometry"/>
                </mxCell>
                <mxCell id="25" value="" style="endArrow=classic;startArrow=classic;html=1;fontSize=13;exitX=0;exitY=0.5;exitDx=0;exitDy=0;exitPerimeter=0;entryX=1;entryY=0.5;entryDx=0;entryDy=0;entryPerimeter=0;" parent="1" source="23" target="10" edge="1">
                    <mxGeometry width="50" height="50" relative="1" as="geometry">
                        <mxPoint x="400" y="448" as="sourcePoint"/>
                        <mxPoint x="450" y="398" as="targetPoint"/>
                    </mxGeometry>
                </mxCell>
                <mxCell id="26" value="/tmp/test_station&lt;br&gt;/db" style="shape=cylinder3;whiteSpace=wrap;html=1;boundedLbl=1;backgroundOutline=1;size=15;fontSize=13;fillColor=#1ba1e2;fontColor=#ffffff;strokeColor=#006EAF;" parent="1" vertex="1">
                    <mxGeometry x="60" y="540" width="100" height="80" as="geometry"/>
                </mxCell>
                <mxCell id="28" value="/var/nfs/&lt;br&gt;cat_watcher_output" style="shape=cylinder3;whiteSpace=wrap;html=1;boundedLbl=1;backgroundOutline=1;size=15;fontSize=13;fillColor=#1ba1e2;fontColor=#ffffff;strokeColor=#006EAF;" parent="1" vertex="1">
                    <mxGeometry x="555" y="560.5" width="140" height="70" as="geometry"/>
                </mxCell>
                <mxCell id="30" value="" style="endArrow=classic;startArrow=classic;html=1;fontSize=13;exitX=0.5;exitY=0;exitDx=0;exitDy=0;exitPerimeter=0;" parent="1" source="28" target="18" edge="1">
                    <mxGeometry width="50" height="50" relative="1" as="geometry">
                        <mxPoint x="400" y="698" as="sourcePoint"/>
                        <mxPoint x="450" y="648" as="targetPoint"/>
                    </mxGeometry>
                </mxCell>
                <mxCell id="33" value="" style="endArrow=classic;startArrow=classic;html=1;fontSize=13;exitX=1;exitY=0.5;exitDx=0;exitDy=0;exitPerimeter=0;entryX=0.5;entryY=1;entryDx=0;entryDy=0;entryPerimeter=0;" parent="1" source="26" target="7" edge="1">
                    <mxGeometry width="50" height="50" relative="1" as="geometry">
                        <mxPoint x="400" y="678" as="sourcePoint"/>
                        <mxPoint x="450" y="628" as="targetPoint"/>
                    </mxGeometry>
                </mxCell>
                <mxCell id="34" value="&lt;span&gt;&amp;lt;project_path&amp;gt;&lt;/span&gt;&lt;br&gt;&lt;span&gt;/nginx.conf&lt;/span&gt;" style="shape=cylinder3;whiteSpace=wrap;html=1;boundedLbl=1;backgroundOutline=1;size=15;fontSize=13;fillColor=#1ba1e2;fontColor=#ffffff;strokeColor=#006EAF;" parent="1" vertex="1">
                    <mxGeometry x="60" y="408" width="100" height="80" as="geometry"/>
                </mxCell>
                <mxCell id="35" value="" style="endArrow=classic;startArrow=classic;html=1;fontSize=13;entryX=0.5;entryY=0;entryDx=0;entryDy=0;entryPerimeter=0;exitX=0.5;exitY=1;exitDx=0;exitDy=0;exitPerimeter=0;" parent="1" source="24" target="34" edge="1">
                    <mxGeometry width="50" height="50" relative="1" as="geometry">
                        <mxPoint x="400" y="368" as="sourcePoint"/>
                        <mxPoint x="450" y="318" as="targetPoint"/>
                    </mxGeometry>
                </mxCell>
                <mxCell id="36" style="edgeStyle=none;html=1;exitX=1;exitY=0.3333333333333333;exitDx=0;exitDy=0;exitPerimeter=0;fontSize=13;" parent="1" source="37" target="12" edge="1">
                    <mxGeometry relative="1" as="geometry"/>
                </mxCell>
                <mxCell id="37" value="" style="shape=umlActor;verticalLabelPosition=bottom;verticalAlign=top;html=1;outlineConnect=0;fontSize=13;" parent="1" vertex="1">
                    <mxGeometry x="40" y="48" width="30" height="60" as="geometry"/>
                </mxCell>
                <mxCell id="38" value="3001" style="ellipse;whiteSpace=wrap;html=1;aspect=fixed;fontSize=13;fillColor=#f8cecc;gradientColor=#ea6b66;strokeColor=#b85450;" parent="1" vertex="1">
                    <mxGeometry x="297.5" y="218" width="40" height="40" as="geometry"/>
                </mxCell>
                <mxCell id="43" value="&lt;b&gt;&lt;font style=&quot;font-size: 16px&quot;&gt;cattechserver&lt;/font&gt;&lt;/b&gt;" style="text;html=1;strokeColor=none;fillColor=none;align=center;verticalAlign=middle;whiteSpace=wrap;rounded=0;" parent="1" vertex="1">
                    <mxGeometry x="650" y="148" width="85" height="30" as="geometry"/>
                </mxCell>
                <mxCell id="44" value="User" style="text;html=1;align=center;verticalAlign=middle;resizable=0;points=[];autosize=1;strokeColor=none;fillColor=none;fontSize=16;" parent="1" vertex="1">
                    <mxGeometry x="30" y="108" width="50" height="20" as="geometry"/>
                </mxCell>
                <mxCell id="45" value="http://&amp;lt;server_address&amp;gt;:11190." style="text;html=1;align=center;verticalAlign=middle;resizable=0;points=[];autosize=1;strokeColor=none;fillColor=none;fontSize=16;" parent="1" vertex="1">
                    <mxGeometry x="85" y="80" width="240" height="20" as="geometry"/>
                </mxCell>
                <mxCell id="46" value="" style="endArrow=classic;startArrow=classic;html=1;fontSize=16;entryX=0;entryY=0.5;entryDx=0;entryDy=0;exitX=1;exitY=0.5;exitDx=0;exitDy=0;" parent="1" source="15" target="9" edge="1">
                    <mxGeometry width="50" height="50" relative="1" as="geometry">
                        <mxPoint x="370" y="390" as="sourcePoint"/>
                        <mxPoint x="420" y="340" as="targetPoint"/>
                    </mxGeometry>
                </mxCell>
                <mxCell id="48" value="" style="endArrow=classic;startArrow=classic;html=1;fontSize=16;entryX=0;entryY=0;entryDx=0;entryDy=0;exitX=1;exitY=0.5;exitDx=0;exitDy=0;" parent="1" source="38" target="9" edge="1">
                    <mxGeometry width="50" height="50" relative="1" as="geometry">
                        <mxPoint x="370" y="390" as="sourcePoint"/>
                        <mxPoint x="420" y="340" as="targetPoint"/>
                    </mxGeometry>
                </mxCell>
                <mxCell id="54" value="&lt;font style=&quot;font-size: 9px&quot;&gt;get data from&lt;/font&gt;" style="text;html=1;strokeColor=none;fillColor=none;align=center;verticalAlign=middle;whiteSpace=wrap;rounded=0;fontSize=16;rotation=-35;" parent="1" vertex="1">
                    <mxGeometry x="420" y="400.5" width="60" height="30" as="geometry"/>
                </mxCell>
                <mxCell id="56" value="Send data to" style="text;html=1;strokeColor=none;fillColor=none;align=center;verticalAlign=middle;whiteSpace=wrap;rounded=0;fontSize=9;rotation=20;" parent="1" vertex="1">
                    <mxGeometry x="430" y="480" width="60" height="30" as="geometry"/>
                </mxCell>
            </root>
        </mxGraphModel>
    </diagram>
</mxfile>